<?xml version="1.0" encoding="utf-8" ?>
<svg xmlns="http://www.w3.org/2000/svg" xmlns:xlink="http://www.w3.org/1999/xlink" width="1024" height="1024">
	<path fill="#FFFFFF" d="M0 0L1024 0L1024 1024L0 1024L0 0Z"/>
	<path fill="#B0304E" d="M193.972 517.685L205.076 570.311C206.457 576.986 209.21 594.219 211.715 599.644L212.548 599.942C219.078 599.004 225.897 598.763 232.486 598.282C244.732 597.387 257.005 596.542 269.276 596.078C277.774 595.756 287.31 596.44 295.621 594.684C296.881 602.868 299.842 610.996 302.379 618.858L312.35 650.076L312.775 651.739C312.59 651.956 312.461 652.236 312.222 652.391C311.103 653.119 257.668 663.175 250.115 664.661C196.994 675.116 143.961 686.551 90.6634 696.045L128.905 636.18C136.452 624.391 144.259 612.679 151.287 600.573C140.828 594.736 129.589 589.829 118.819 584.559C93.8397 572.334 68.6532 560.403 43.837 547.862C55.9344 544.406 69.0653 542.746 81.4174 540.243L164.846 523.567C174.54 521.568 184.346 519.991 193.972 517.685Z"/>
	<path fill="#79313C" d="M212.548 599.942C219.078 599.004 225.897 598.763 232.486 598.282C244.732 597.387 257.005 596.542 269.276 596.078C277.774 595.756 287.31 596.44 295.621 594.684C296.881 602.868 299.842 610.996 302.379 618.858L312.35 650.076C311.388 650.031 310.784 649.862 309.916 649.437C296.722 642.977 283.814 635.824 270.689 629.209C251.334 619.453 231.659 610.164 212.548 599.942Z"/>
	<path fill="#B0304E" d="M829.989 516.114C855.65 522.03 881.502 527.091 907.273 532.499C932.07 537.703 956.795 543.333 981.818 547.387C977.704 550.022 972.925 551.916 968.502 554.005L947.963 563.88C922.584 576.283 897.161 588.805 872.003 601.65C891.623 633.938 913.879 664.661 933.889 696.695L778.366 665.128L733.484 655.871C725.893 654.286 717.154 651.592 709.458 651.39C709.215 650.803 709.115 650.459 709.234 649.804C710.03 645.408 712.522 640.203 714.021 635.928C718.74 622.479 724.059 609.039 728.108 595.385C748.117 597.934 768.197 599.483 788.192 602.305C794.715 603.225 801.759 603.893 808.134 605.453C810.514 601.499 811.803 592.464 812.964 587.706L823.404 543.469C825.493 534.384 827.266 525.026 829.989 516.114Z"/>
	<path fill="#79313C" d="M728.108 595.385C748.117 597.934 768.197 599.483 788.192 602.305C794.715 603.225 801.759 603.893 808.134 605.453C801.849 609.994 788.03 615.374 780.584 618.862C766.408 625.504 752.089 631.803 737.861 638.328C728.379 642.676 719.046 647.26 709.458 651.39C709.215 650.803 709.115 650.459 709.234 649.804C710.03 645.408 712.522 640.203 714.021 635.928C718.74 622.479 724.059 609.039 728.108 595.385Z"/>
	<path fill="#367974" d="M297.08 595.08C309.658 593.948 322.538 594.13 335.175 593.877C374.699 593.083 414.403 594.238 453.886 596.085C473.218 596.989 492.652 598.594 512.004 598.512C529.667 598.437 547.468 596.51 565.111 595.57C606.108 593.385 647.004 591.526 688.058 593.048C700.564 593.512 713.773 593.44 726.147 595.237C717.027 602.775 708.683 611.499 700.199 619.75C686.466 633.105 672.707 646.455 659.42 660.256C659.438 680.855 659.597 701.465 659.331 722.063L583.864 721.56L512.194 790.944L439.096 721.49C414.378 722.388 389.5 721.771 364.762 721.735L364.985 663.254C353.523 650.356 340.485 638.329 328.154 626.227C317.687 615.954 307.606 605.297 297.08 595.08Z"/>
	<path fill="#367974" d="M511.79 231.761C521.053 239.705 529.374 249.246 537.979 257.93C552.921 273.009 568.047 287.865 582.542 303.382C608.198 301.994 633.967 301.736 659.654 301.302C659.35 320.734 657.875 340.276 656.894 359.695C682.787 385.075 707.761 411.523 732.626 437.906C720.935 437.372 709.165 435.86 697.493 434.877C677.7 433.21 657.864 431.838 638.042 430.558C585.291 427.151 531.894 425.984 479.031 427.088C436.548 427.974 394.303 430.185 351.936 433.319C339.658 434.227 327.385 435.153 315.13 436.339C308.183 437.011 296.034 439.22 289.475 438.391L366.61 361.143C364.568 341.427 363.299 321.288 362.409 301.479C388.511 301.733 414.704 302.582 440.796 303.425C450.444 292.278 461.875 282.102 472.283 271.605C485.389 258.387 498.128 244.386 511.79 231.761Z"/>
	<path fill="#D27A79" d="M289.475 438.391C296.034 439.22 308.183 437.011 315.13 436.339C327.385 435.153 339.658 434.227 351.936 433.319C394.303 430.185 436.548 427.974 479.031 427.088C531.894 425.984 585.291 427.151 638.042 430.558C657.864 431.838 677.7 433.21 697.493 434.877C709.165 435.86 720.935 437.372 732.626 437.906C736.778 439.663 766.839 442.108 774.227 442.984L844.875 451.857L834.967 495.249C833.468 501.587 830.617 509.833 829.989 516.114C827.266 525.026 825.493 534.384 823.404 543.469L812.964 587.706C811.803 592.464 810.514 601.499 808.134 605.453C801.759 603.893 794.715 603.225 788.192 602.305C768.197 599.483 748.117 597.934 728.108 595.385C727.396 595.097 726.901 595.196 726.147 595.237C713.773 593.44 700.564 593.512 688.058 593.048C647.004 591.526 606.108 593.385 565.111 595.57C547.468 596.51 529.667 598.437 512.004 598.512C492.652 598.594 473.218 596.989 453.886 596.085C414.403 594.238 374.699 593.083 335.175 593.877C322.538 594.13 309.658 593.948 297.08 595.08L295.621 594.684C287.31 596.44 277.774 595.756 269.276 596.078C257.005 596.542 244.732 597.387 232.486 598.282C225.897 598.763 219.078 599.004 212.548 599.942L211.715 599.644C209.21 594.219 206.457 576.986 205.076 570.311L193.972 517.685L180.163 452.528C190.89 450.686 201.779 449.631 212.575 448.242L258.498 442.226C268.516 440.994 279.819 441.078 289.475 438.391Z"/>
	<path fill="#F8F8F5" d="M423.884 482.717C427.894 482.437 431.971 482.444 435.993 482.312C436.206 484.673 436.986 488.294 435.848 490.319C435.618 490.355 435.386 490.384 435.157 490.427C434.669 490.52 433.594 490.756 433.232 491.172C431.308 493.381 429.717 497.512 428.209 500.133C425.439 504.951 422.451 509.624 419.39 514.261C419.931 518.943 419.4 524.972 421.335 529.298C422.138 529.546 422.639 529.775 423.298 530.298C424.192 532.534 423.681 535.162 423.506 537.522C417.185 537.816 410.882 538.254 404.571 538.712C404.354 536.503 403.581 533.046 405.009 531.159C405.516 530.489 406.393 530.562 407.172 530.41C408.916 527.526 407.503 518.339 407.481 514.832C403.378 509.725 399.502 504.44 395.55 499.215C394.204 497.435 392.761 494.996 391.179 493.489C390.391 492.739 389.044 492.491 388.023 492.219C387.815 492.164 387.605 492.112 387.396 492.059C386.596 490.187 386.958 487.406 386.965 485.372C393.623 484.523 400.346 483.956 407.032 483.36C407.106 485.024 407.343 486.911 407.11 488.559C406.906 489.993 406.025 490.264 404.928 491.031L404.785 491.936C406.834 496.113 409.932 499.892 412.964 503.4C415.988 499.675 418.49 495.246 420.872 491.085C420.15 489.956 419.621 490.024 418.411 489.604C417.374 487.796 417.727 485.095 417.728 483.045L423.884 482.717Z"/>
	<path fill="#F8F8F5" d="M503.44 480.636C511.254 479.84 518.377 483.622 525.972 484.806L525.957 496.599L517.571 496.315C517.074 495.483 516.567 494.583 515.945 493.841C514.02 491.543 509.973 490.811 507.158 490.656C504.789 490.526 501.553 490.784 499.834 492.658C498.784 493.802 498.677 494.908 498.6 496.354C500.459 501.697 516.516 502.653 522.886 506.899C526.369 509.22 529.154 512.864 529.78 517.069C530.397 521.214 528.889 525.453 526.268 528.65C521.925 533.947 516.047 535.576 509.514 536.081C501.309 536.118 494.467 534.306 486.756 531.582C486.599 527.718 486.794 523.852 486.933 519.989L495.937 520.019C498.972 523.265 501.887 525.951 506.535 526.158C510.226 526.322 513.477 525.47 516.151 522.85C517.32 521.704 517.628 520.917 517.666 519.304C514.883 514.075 499.312 511.884 493.528 508.363C490.221 506.351 487.484 503.381 486.695 499.492C485.991 496.018 486.858 491.569 488.905 488.664C492.233 483.941 497.958 481.648 503.44 480.636Z"/>
	<path fill="#F8F8F5" d="M677.54 486.445C685.722 486.532 703.691 487.578 710.987 491.172C714.878 493.088 718.072 496.186 719.334 500.415C720.643 504.801 719.944 510.742 717.701 514.728C711.396 525.935 700.101 521.63 691.275 523.911L690.747 525.362C690.489 528.293 690.467 531.28 690.354 534.223L695.923 535.104C695.629 537.905 695.194 540.678 694.758 543.46C687.908 542.608 680.92 542.261 674.037 541.688C674.159 538.994 673.894 535.534 675.698 533.348C676.105 532.856 676.702 532.339 676.91 531.71C677.868 528.808 680.484 498.115 679.694 495.906L677.592 495.342C676.549 493.656 677.407 488.588 677.54 486.445Z"/>
	<path fill="#D27A79" d="M693.069 497.888C696.928 497.97 701.014 497.975 704.26 500.366C705.606 501.357 706.613 502.765 706.814 504.458C707.164 507.401 705.525 510.563 703.793 512.815C700.176 514.263 695.66 514.122 691.803 514.317C692.452 508.847 692.86 503.392 693.069 497.888Z"/>
	<path fill="#F8F8F5" d="M545.282 480.485L563.969 481.037C564.003 482.771 564.255 484.713 564.054 486.434C563.866 488.041 562.798 488.572 561.62 489.415C560.252 493.723 560.906 499.34 560.98 503.871C567.469 503.983 573.952 504.258 580.437 504.513C580.436 499.843 580.866 494.883 580.111 490.27C579.503 489.389 579.192 488.909 578.192 488.431C577.966 488.324 577.727 488.245 577.494 488.152C576.365 486.381 576.941 483.142 576.965 481.011C583.473 481.103 590.003 481.539 596.506 481.841C596.602 484.539 597.139 487.556 595.173 489.709C594.637 490.296 594.076 490.848 593.549 491.449C593.136 496.987 591.711 523.953 592.839 527.729L594.834 528.21C595.627 530.468 595.225 533.524 595.195 535.915C592.526 537.533 579.311 536.232 575.693 536.101C575.574 533.466 574.965 530.14 576.293 527.786C577.028 527.56 577.522 527.415 578.118 526.902C579.814 525.442 579.345 516.703 579.403 514.349C573.254 513.915 567.005 513.948 560.838 513.792C560.753 516.197 560.653 518.609 560.659 521.015C560.666 523.928 560.692 526.577 562.909 528.69C563.014 528.791 563.124 528.887 563.231 528.985C563.988 531.154 563.19 534.081 562.872 536.331C557.138 536.035 551.388 535.889 545.649 535.685C545.432 532.903 544.904 530.236 546.014 527.598C546.232 527.434 547.072 526.811 547.241 526.641C548.224 525.648 548.703 493.569 547.983 490.667C546.789 485.855 544.865 489.747 545.282 480.485Z"/>
	<path fill="#F8F8F5" d="M630.869 483.602C637.085 483.082 643.128 483.203 648.744 486.347C654.352 489.487 657.845 494.719 659.435 500.868C661.758 509.852 660.787 521.791 655.794 529.757C652.385 535.196 647.607 537.869 641.556 539.378C635.687 539.919 629.832 539.44 624.499 536.725C619.078 533.966 615.264 529.214 613.423 523.449C610.671 514.831 611.724 502.72 616.061 494.738C619.337 488.711 624.473 485.495 630.869 483.602Z"/>
	<path fill="#D27A79" d="M633.008 494.59C635.262 494.387 637.709 494.023 639.902 494.745C642.551 495.617 644.63 497.849 645.796 500.322C648.495 506.043 648.043 515.513 645.91 521.397C644.601 525.007 643.026 526.826 639.588 528.484C637.45 528.615 635.135 528.75 633.048 528.172C630.359 527.428 628.04 525.392 626.714 522.97C623.875 517.782 624.248 509.132 625.916 503.536C627.224 499.147 628.958 496.699 633.008 494.59Z"/>
	<path fill="#F8F8F5" d="M360.7 487.203L367.894 486.684L368.007 490.186C368.149 495.687 367.83 492.745 365.355 495.349C365.376 500.089 368.766 529.735 370.328 532.434C371.14 532.672 372.119 532.891 372.784 533.452C374.684 535.054 374.116 539.179 374.105 541.426C368.1 541.923 362.185 542.6 356.227 543.505C355.886 541.568 354.995 538.578 355.683 536.686C356.248 535.133 357.069 534.945 358.408 534.228C358.86 525.294 356.908 515.245 355.655 506.374C352.485 517.826 348.11 528.819 345.654 540.475C342.205 540.534 338.745 540.453 335.295 540.426C329.001 531.364 323.75 519.877 318.534 510.063C319.173 514.077 319.682 518.074 320.082 522.119C320.828 527.075 320.352 532.089 321.84 536.941C322.605 537.218 323.378 537.47 323.995 538.03C325.857 539.719 325.596 543.535 325.74 545.866C319.497 546.409 313.27 547.116 307.021 547.63C307.014 545.584 306.767 543.563 306.556 541.529C307.268 539.88 308.15 539.531 309.631 538.63L310.168 538.308L310.167 537.846C310.124 533.936 307.155 501.184 305.965 500.027L303.615 500.202C302.444 498.441 302.659 494.824 302.469 492.656C308.022 492.463 313.606 491.815 319.074 490.845C326.12 502.86 332.491 515.26 339.648 527.208C343.359 514.228 347.482 501.254 350.556 488.11L360.7 487.203Z"/>
</svg>
